<?xml version="1.0" encoding="utf-8"?>
<!-- Svg Vector Icons : http://www.onlinewebfonts.com/icon -->
<!DOCTYPE svg PUBLIC "-//W3C//DTD SVG 1.1//EN" "http://www.w3.org/Graphics/SVG/1.1/DTD/svg11.dtd">
<svg version="1.1" xmlns="http://www.w3.org/2000/svg" xmlns:xlink="http://www.w3.org/1999/xlink" x="0px" y="0px" viewBox="0 0 1000 1000" enable-background="new 0 0 1000 1000" xml:space="preserve">
<metadata> Svg Vector Icons : http://www.onlinewebfonts.com/icon </metadata>
<g><path d="M903.5,7.1H96.5C48.8,7.1,10,45.9,10,93.5V670c0,47.7,38.8,86.5,86.5,86.5h28.8v236.5l270.2-236.5h508c47.7,0,86.5-38.8,86.5-86.5V93.5C990,45.9,951.2,7.1,903.5,7.1L903.5,7.1z M932.4,670c0,15.9-12.9,28.8-28.8,28.8H373.9L182.9,865.9V698.8H96.5c-15.9,0-28.8-13-28.8-28.8V93.5c0-15.9,12.9-28.8,28.8-28.8h807.1c15.9,0,28.8,13,28.8,28.8V670z"/></g>
</svg>