<?xml version="1.0" encoding="utf-8"?>
<!-- Svg Vector Icons : http://www.onlinewebfonts.com/icon -->
<!DOCTYPE svg PUBLIC "-//W3C//DTD SVG 1.1//EN" "http://www.w3.org/Graphics/SVG/1.1/DTD/svg11.dtd">
<svg version="1.1" xmlns="http://www.w3.org/2000/svg" xmlns:xlink="http://www.w3.org/1999/xlink" x="0px" y="0px" viewBox="0 0 1000 1000" enable-background="new 0 0 1000 1000" xml:space="preserve">
<metadata> Svg Vector Icons : http://www.onlinewebfonts.com/icon </metadata>
<g><g><path d="M920,500c-55.4-86-124.9-150.4-208.4-193c22.2,37.9,33.4,78.9,33.4,123c0,67.4-24,125.1-71.9,173.1C625.1,651,567.4,675,500,675c-67.4,0-125.1-24-173.1-71.9C279,555.1,255,497.4,255,430c0-44.1,11.1-85.1,33.4-123C204.9,349.6,135.4,414,80,500c48.5,74.7,109.3,134.3,182.4,178.6C335.5,722.9,414.7,745,500,745c85.3,0,164.5-22.1,237.6-66.4C810.7,634.3,871.5,574.7,920,500z M526.3,290c0-7.3-2.6-13.5-7.7-18.6c-5.1-5.1-11.3-7.7-18.6-7.7c-45.6,0-84.7,16.3-117.3,48.9s-48.9,71.7-48.9,117.3c0,7.3,2.6,13.5,7.7,18.6c5.1,5.1,11.3,7.7,18.6,7.7s13.5-2.6,18.6-7.7c5.1-5.1,7.7-11.3,7.7-18.6c0-31.4,11.1-58.2,33.4-80.4c22.2-22.2,49-33.4,80.4-33.4c7.3,0,13.5-2.6,18.6-7.7C523.7,303.5,526.3,297.3,526.3,290L526.3,290z M990,500c0,12.4-3.6,25-10.9,37.7c-51,83.9-119.7,151-205.9,201.5C686.9,789.8,595.9,815,500,815c-95.9,0-186.9-25.3-273.2-76C140.6,688.3,72,621.2,20.9,537.7C13.6,525,10,512.4,10,500c0-12.4,3.6-25,10.9-37.7C72,378.8,140.6,311.7,226.8,261c86.2-50.7,177.3-76,273.2-76s186.9,25.3,273.2,76c86.2,50.7,154.9,117.8,205.9,201.2C986.4,475,990,487.6,990,500L990,500z"/></g></g>
</svg>