<?xml version="1.0" encoding="utf-8"?>
<!-- Svg Vector Icons : http://www.onlinewebfonts.com/icon -->
<!DOCTYPE svg PUBLIC "-//W3C//DTD SVG 1.1//EN" "http://www.w3.org/Graphics/SVG/1.1/DTD/svg11.dtd">
<svg version="1.1" xmlns="http://www.w3.org/2000/svg" xmlns:xlink="http://www.w3.org/1999/xlink" x="0px" y="0px" viewBox="0 0 1000 1000" enable-background="new 0 0 1000 1000" xml:space="preserve">
<metadata> Svg Vector Icons : http://www.onlinewebfonts.com/icon </metadata>
<g><g transform="translate(0.000000,511.000000) scale(0.100000,-0.100000)"><path d="M7545.7,3854.3c-225.2-30.7-348-77.8-446.3-167.9c-49.1-45-96.2-106.4-102.4-133.1c-8.2-28.7-38.9-59.4-77.8-75.7c-34.8-14.3-86-51.2-112.6-79.8l-49.1-53.2l59.4-75.8c272.3-341.9,405.4-642.8,429.9-980.6c16.4-212.9-14.3-429.9-104.4-726.7c-38.9-126.9-71.7-270.2-71.7-319.4c0-81.9,6.1-94.2,79.8-139.2c169.9-108.5,231.3-294.8,147.4-456.5c-53.2-106.5-233.4-268.2-438.1-395.1c-88-53.2-151.5-102.4-143.3-108.5c8.2-4.1,104.4-43,210.9-86C7607.1-211.3,7916.2-459,8127-903.2c77.8-165.8,151.5-472.9,151.5-644.9v-108.5l118.7,14.3c372.6,45,780,159.7,1062.5,298.9c337.8,167.9,444.2,321.4,440.1,642.8c-2.1,413.5-174,782-458.6,996.9c-129,98.3-198.6,129-591.6,260c-442.2,147.4-567.1,235.4-603.9,425.8c-10.2,59.4,2,77.8,169.9,245.7c186.3,184.2,319.3,395.1,372.6,589.6c16.4,61.4,38.9,90.1,88,112.6c139.2,65.5,202.7,337.8,122.8,520c-24.6,51.2-53.2,94.2-63.5,94.2c-14.3,0-22.5,75.8-22.5,204.7c0,372.6-98.3,698.1-249.8,827.1C8409.6,3792.9,7944.9,3909.6,7545.7,3854.3z"/><path d="M5383.9,3524.8c-202.7-22.5-372.6-112.6-505.7-266.1c-69.6-77.8-122.8-120.8-151.5-120.8c-92.1,0-239.5-67.5-337.8-157.6c-143.3-129-151.5-147.4-102.4-262c86-200.6,163.8-612.1,163.8-878.2c2-77.8,12.3-139.2,32.8-165.8c51.2-69.6,110.5-294.8,110.5-427.9c0-229.3-79.8-454.5-215-603.9c-38.9-43-71.7-83.9-71.7-92.1c0-32.8,352.1-180.2,522-219.1c102.4-24.6,194.5-47.1,208.8-51.2c32.7-8.2-12.3-165.8-73.7-249.7c-59.4-83.9-159.7-129-558.9-249.7c-368.5-110.5-601.9-202.7-575.2-225.2c8.2-8.2,178.1-69.6,374.6-133.1c505.6-167.9,683.7-262,900.7-481.1c251.8-251.8,393.1-505.6,495.4-896.6c36.8-141.3,45-235.4,47.1-448.3v-272.3h102.4c517.9,2,1171,131,1572.2,315.3c169.9,77.8,413.5,229.3,468.8,290.7c161.7,188.3,190.4,520,75.8,886.4c-145.4,460.6-432,687.9-1236.5,982.6c-157.6,59.4-319.4,120.8-362.4,139.2c-106.5,45-198.6,147.4-231.3,257.9l-28.6,96.2l86,20.5c337.8,88,608,217,788.1,378.7l106.5,96.2l-100.3,90.1c-194.5,174-212.9,368.5-73.7,775.9c163.8,487.2,106.5,882.3-184.2,1289.7c-139.2,196.5-354.2,382.8-548.6,477C5840.4,3541.1,5695,3561.6,5383.9,3524.8z"/><path d="M2448.3,3199.3c-176.1-18.4-362.3-65.5-460.6-116.7c-94.2-49.1-210.9-163.8-247.7-247.7c-24.6-55.3-55.3-86-104.4-104.4c-104.4-36.9-208.8-174-262-339.8c-38.9-122.8-45-190.4-45-470.8c0-307.1-2.1-329.6-45-374.6c-69.6-75.8-94.2-176.1-83.9-352.1c10.2-184.2,75.7-317.3,186.3-386.9c49.1-30.7,73.7-65.5,92.1-137.2c77.8-292.7,360.3-689.9,626.4-880.3c53.2-38.9,57.3-49.1,43-126.9c-20.5-129-124.9-270.2-253.8-346C1832.1-721,1611-807,1402.2-876.6c-546.6-182.2-653-235.4-853.7-436c-137.2-137.2-182.2-198.6-260-360.3C85.8-2092.6,44.9-2518.4,173.9-2821.4C388.8-3318.9,1785-3716,3044-3638.2c868,53.2,1699.1,303,2043.1,610c294.8,264.1,311.1,792.2,43,1355.2c-75.8,161.7-118.7,221.1-257.9,360.3c-200.6,200.6-300.9,251.8-884.4,446.3c-313.2,106.5-434,155.6-511.8,215c-112.6,83.9-184.2,198.6-202.7,319.4c-12.3,79.8-10.2,83.9,90.1,159.7c239.5,182.2,542.5,630.5,587.5,868c10.2,53.2,30.7,79.8,88,108.5c40.9,22.5,90.1,63.5,110.5,92.1c129,182.2,126.9,509.7-4.1,655.1c-32.8,34.8-38.9,90.1-49.1,337.8c-16.4,448.3-106.5,759.5-262,919.2C3543.5,3101,2998.9,3254.5,2448.3,3199.3z"/></g></g>
</svg>