<?xml version="1.0" encoding="utf-8"?>
<!-- Svg Vector Icons : http://www.onlinewebfonts.com/icon -->
<!DOCTYPE svg PUBLIC "-//W3C//DTD SVG 1.1//EN" "http://www.w3.org/Graphics/SVG/1.1/DTD/svg11.dtd">
<svg version="1.1" xmlns="http://www.w3.org/2000/svg" xmlns:xlink="http://www.w3.org/1999/xlink" x="0px" y="0px" viewBox="0 0 1000 1000" enable-background="new 0 0 1000 1000" xml:space="preserve">
<metadata> Svg Vector Icons : http://www.onlinewebfonts.com/icon </metadata>
<g><path d="M984.3,520.6C883.6,709.9,702.8,822.8,500.8,822.8c-202,0-383.3-112.9-485-302c-7.8-14.5-7.7-32,0.2-46.5c101.7-186.1,283.5-297.2,486.3-297.2c203.1,0,383.3,111.3,482,297.7C991.9,489.2,991.9,506.3,984.3,520.6z M502.4,238.7c-176.6,0-336.4,96.2-432.9,258.9c96.4,165.7,255.6,263.7,431.2,263.7c175.6,0,334.3-98.1,429.8-264C836.8,334.8,678.8,238.7,502.4,238.7z M500,654.4c-87.8,0-159.2-71.2-159.2-158.7S412.2,336.9,500,336.9s159.2,71.2,159.2,158.7C659.3,583.2,587.8,654.4,500,654.4z M500,403.9c-50.9,0-92.2,41.4-92.2,92.2c0,50.9,41.4,92.2,92.2,92.2s92.2-41.4,92.2-92.2C592.2,445.3,550.8,403.9,500,403.9z"/></g>
</svg>